M48
;DRILL file {KiCad (2016-02-10 BZR 6547, Git 5658ed9)-product} date Sun 14 Feb 2016 19:57:08 CET
;FORMAT={3:3/ absolute / metric / keep zeros}
FMAT,2
METRIC,TZ
T1C0.400
T2C0.700
T3C0.800
T4C0.800
T5C0.813
T6C1.001
T7C1.016
T8C3.048
T9C3.556
%
G90
G05
M71
T1
X097473Y-066167
X140208Y-069088
T2
X125984Y-048300
X125984Y-050800
T3
X100076Y-079502
X100076Y-087122
X100584Y-065532
X100584Y-073152
X100838Y-053340
X100838Y-060960
X102616Y-079502
X102616Y-087122
X103124Y-065532
X103124Y-073152
X103378Y-053340
X103378Y-060960
X105156Y-079502
X105156Y-087122
X105664Y-065532
X105664Y-073152
X105918Y-053340
X105918Y-060960
X107696Y-079502
X107696Y-087122
X108204Y-065532
X108204Y-073152
X108458Y-053340
X108458Y-060960
X110236Y-079502
X110236Y-087122
X110744Y-065532
X110744Y-073152
X112776Y-079502
X112776Y-087122
X113284Y-065532
X113284Y-073152
X115316Y-079502
X115316Y-087122
X115824Y-065532
X115824Y-073152
X117856Y-079502
X117856Y-087122
X118364Y-065532
X118364Y-073152
X120396Y-079502
X120396Y-087122
X120904Y-065532
X120904Y-073152
X122936Y-053848
X122936Y-055848
X122936Y-079502
X122936Y-087122
X123444Y-065532
X123444Y-073152
X125476Y-079502
X125476Y-087122
X128016Y-079502
X128016Y-087122
X130556Y-079502
X130556Y-087122
X133096Y-079502
X133096Y-087122
T4
X131826Y-066393
X131826Y-071275
T5
X116840Y-054356
X116840Y-061976
X142748Y-054102
X142748Y-061722
T6
X132080Y-046355
X132080Y-048895
X132080Y-051435
X136652Y-054864
X139192Y-054864
T7
X113538Y-041656
X113538Y-044196
X113538Y-046736
X116078Y-041656
X116078Y-044196
X116078Y-046736
X127762Y-040894
X130302Y-040894
X137414Y-064008
X137414Y-066548
X137414Y-071374
X137414Y-073914
T8
X136398Y-046482
X141224Y-043180
T9
X141224Y-049530
T0
M30
