M48
;DRILL file {KiCad (2016-08-08 BZR 7012, Git cdc951d)-product} date Mon Sep 12 23:27:26 2016
;FORMAT={3:3/ absolute / metric / keep zeros}
FMAT,2
METRIC,TZ
T1C0.400
T2C0.700
T3C0.800
T4C0.800
T5C0.813
T6C1.001
T7C1.016
%
G90
G05
M71
T1
X097473Y-066167
T2
X099422Y-041444
X099422Y-043944
T3
X100076Y-079502
X100076Y-087122
X100584Y-065532
X100584Y-073152
X100838Y-053340
X100838Y-060960
X102616Y-079502
X102616Y-087122
X103124Y-065532
X103124Y-073152
X103378Y-053340
X103378Y-060960
X105156Y-079502
X105156Y-087122
X105664Y-065532
X105664Y-073152
X105918Y-053340
X105918Y-060960
X107696Y-079502
X107696Y-087122
X108204Y-065532
X108204Y-073152
X108458Y-053340
X108458Y-060960
X110236Y-079502
X110236Y-087122
X110744Y-065532
X110744Y-073152
X112776Y-079502
X112776Y-087122
X113284Y-065532
X113284Y-073152
X115316Y-079502
X115316Y-087122
X115824Y-065532
X115824Y-073152
X117856Y-079502
X117856Y-087122
X118364Y-065532
X118364Y-073152
X120396Y-079502
X120396Y-087122
X120904Y-065532
X120904Y-073152
X122282Y-054358
X122282Y-056358
X122936Y-079502
X122936Y-087122
X123444Y-065532
X123444Y-073152
X125476Y-079502
X125476Y-087122
X128016Y-079502
X128016Y-087122
X130556Y-079502
X130556Y-087122
X133096Y-079502
X133096Y-087122
T4
X131826Y-066393
X131826Y-071275
T5
X143618Y-059692
X143618Y-067312
T6
X128632Y-048770
X128632Y-051310
X128632Y-053850
X138284Y-058676
X140824Y-058676
T7
X113538Y-041656
X113538Y-044196
X113538Y-046736
X116078Y-041656
X116078Y-044196
X116078Y-046736
X125584Y-041150
X128124Y-041150
X137414Y-064008
X137414Y-066548
X137414Y-071374
X137414Y-073914
T6
X136125Y-049193G85X136125Y-051192
G05
X141823Y-047193G85X139825Y-047193
G05
X141823Y-053192G85X139825Y-053192
G05
T0
M30
